<?xml version="1.0" encoding="UTF-8" standalone="no"?><!DOCTYPE svg PUBLIC "-//W3C//DTD SVG 1.1//EN" "http://www.w3.org/Graphics/SVG/1.1/DTD/svg11.dtd"><svg width="100%" height="100%" viewBox="0 0 927 267" version="1.1" xmlns="http://www.w3.org/2000/svg" xmlns:xlink="http://www.w3.org/1999/xlink" xml:space="preserve" xmlns:serif="http://www.serif.com/" style="fill-rule:evenodd;clip-rule:evenodd;stroke-linejoin:round;stroke-miterlimit:2;"><g id="Logo"><path d="M77.778,200l-0,-133.333l22.222,-0l0,133.333l-22.222,0Zm44.444,44.444l0,-222.222l22.222,0l0,222.222l-22.222,0Zm-88.889,-88.888l0,-44.445l22.223,0l-0,44.445l-22.223,-0Zm133.334,44.444l-0,-133.333l22.222,-0l-0,133.333l-22.222,0Zm44.444,-44.444l0,-44.445l22.222,0l0,44.445l-22.222,-0Z" style="fill:#1db954;fill-rule:nonzero;"/><g transform="matrix(1,0,0,1,-943.531,-382.043)"><g transform="matrix(133.333,0,0,133.333,1211.13,562.643)"><path d="M0.068,-0l0,-0.706l0.112,0l0.278,0.433l-0.057,-0l0.277,-0.433l0.113,0l0,0.706l-0.157,-0l0,-0.441l0.028,0.007l-0.181,0.282l-0.104,-0l-0.18,-0.282l0.027,-0.007l0,0.441l-0.156,-0Z" style="fill:#f3f7f4;fill-rule:nonzero;"/></g><g transform="matrix(133.333,0,0,133.333,1325.53,562.643)"><path d="M0.054,-0l0,-0.486l0.153,0l0,0.486l-0.153,-0Zm0.077,-0.553c-0.024,0 -0.044,-0.008 -0.06,-0.024c-0.015,-0.017 -0.023,-0.037 -0.023,-0.06c-0,-0.024 0.008,-0.044 0.023,-0.06c0.016,-0.016 0.036,-0.024 0.06,-0.024c0.024,0 0.044,0.008 0.059,0.024c0.015,0.016 0.023,0.036 0.023,0.06c0,0.023 -0.008,0.043 -0.023,0.059c-0.015,0.017 -0.035,0.025 -0.059,0.025Z" style="fill:#f3f7f4;fill-rule:nonzero;"/></g><g transform="matrix(133.333,0,0,133.333,1360.33,562.643)"><path d="M0.355,-0l-0.117,-0.189l-0.033,-0.021l-0.191,-0.276l0.179,0l0.109,0.177l0.032,0.02l0.198,0.289l-0.177,-0Zm-0.35,-0l0.199,-0.283l0.087,0.098l-0.119,0.185l-0.167,0Zm0.328,-0.211l-0.087,-0.098l0.11,-0.177l0.166,0l-0.189,0.275Z" style="fill:#f3f7f4;fill-rule:nonzero;"/></g><g transform="matrix(133.333,0,0,133.333,1431.8,562.643)"><path d="M0.068,-0l0,-0.706l0.112,0l0.278,0.433l-0.057,-0l0.277,-0.433l0.113,0l0,0.706l-0.157,-0l0,-0.441l0.028,0.007l-0.181,0.282l-0.104,-0l-0.18,-0.282l0.027,-0.007l0,0.441l-0.156,-0Z" style="fill:#1db954;fill-rule:nonzero;"/></g><g transform="matrix(133.333,0,0,133.333,1546.2,562.643)"><path d="M0.257,0.01c-0.045,-0 -0.085,-0.011 -0.119,-0.033c-0.036,-0.022 -0.063,-0.052 -0.084,-0.09c-0.02,-0.038 -0.03,-0.081 -0.03,-0.13c-0,-0.049 0.01,-0.092 0.03,-0.13c0.021,-0.038 0.048,-0.068 0.084,-0.09c0.034,-0.022 0.074,-0.033 0.119,-0.033c0.033,0 0.062,0.006 0.088,0.019c0.027,0.013 0.048,0.03 0.065,0.052c0.017,0.023 0.026,0.048 0.028,0.077l0,0.21c-0.002,0.029 -0.011,0.054 -0.028,0.076c-0.016,0.023 -0.037,0.04 -0.064,0.053c-0.027,0.013 -0.056,0.019 -0.089,0.019Zm0.031,-0.138c0.033,0 0.059,-0.011 0.079,-0.033c0.02,-0.021 0.03,-0.049 0.03,-0.082c0,-0.023 -0.005,-0.043 -0.014,-0.06c-0.009,-0.017 -0.021,-0.031 -0.038,-0.041c-0.016,-0.009 -0.035,-0.014 -0.056,-0.014c-0.021,0 -0.04,0.005 -0.057,0.014c-0.016,0.01 -0.029,0.024 -0.039,0.041c-0.009,0.017 -0.014,0.037 -0.014,0.06c-0,0.022 0.005,0.042 0.014,0.059c0.009,0.017 0.022,0.031 0.039,0.041c0.017,0.01 0.035,0.015 0.056,0.015Zm0.103,0.128l0,-0.131l0.023,-0.118l-0.023,-0.118l0,-0.119l0.15,0l0,0.486l-0.15,-0Z" style="fill:#1db954;fill-rule:nonzero;"/></g><g transform="matrix(133.333,0,0,133.333,1625.53,562.643)"><path d="M0.231,0.012c-0.029,-0 -0.057,-0.004 -0.085,-0.011c-0.027,-0.007 -0.053,-0.018 -0.077,-0.032c-0.023,-0.013 -0.043,-0.029 -0.06,-0.047l0.087,-0.088c0.016,0.017 0.035,0.031 0.057,0.04c0.022,0.01 0.046,0.015 0.072,0.015c0.018,-0 0.032,-0.003 0.041,-0.008c0.01,-0.005 0.015,-0.013 0.015,-0.022c0,-0.012 -0.006,-0.021 -0.018,-0.028c-0.011,-0.006 -0.026,-0.012 -0.044,-0.017c-0.018,-0.005 -0.037,-0.01 -0.057,-0.016c-0.02,-0.006 -0.039,-0.014 -0.057,-0.025c-0.018,-0.011 -0.033,-0.026 -0.044,-0.045c-0.011,-0.019 -0.017,-0.043 -0.017,-0.072c-0,-0.031 0.008,-0.059 0.024,-0.082c0.016,-0.023 0.039,-0.041 0.068,-0.054c0.029,-0.013 0.064,-0.02 0.103,-0.02c0.041,0 0.079,0.007 0.114,0.022c0.035,0.014 0.064,0.035 0.086,0.063l-0.087,0.088c-0.015,-0.018 -0.033,-0.031 -0.052,-0.038c-0.019,-0.007 -0.037,-0.011 -0.055,-0.011c-0.017,-0 -0.03,0.002 -0.039,0.007c-0.009,0.005 -0.013,0.013 -0.013,0.022c-0,0.01 0.006,0.018 0.017,0.024c0.011,0.006 0.026,0.011 0.044,0.016c0.018,0.005 0.037,0.01 0.057,0.017c0.02,0.007 0.039,0.016 0.057,0.027c0.018,0.011 0.033,0.026 0.044,0.045c0.011,0.019 0.017,0.044 0.017,0.075c0,0.047 -0.018,0.085 -0.053,0.113c-0.036,0.028 -0.084,0.042 -0.145,0.042Z" style="fill:#1db954;fill-rule:nonzero;"/></g><g transform="matrix(133.333,0,0,133.333,1686.6,562.643)"><path d="M0.123,-0l0,-0.687l0.153,0l0,0.687l-0.153,-0Zm-0.11,-0.356l-0,-0.13l0.373,0l0,0.13l-0.373,0Z" style="fill:#1db954;fill-rule:nonzero;"/></g><g transform="matrix(133.333,0,0,133.333,1738.46,562.643)"><path d="M0.294,0.011c-0.053,-0 -0.099,-0.011 -0.14,-0.033c-0.041,-0.021 -0.074,-0.051 -0.097,-0.09c-0.023,-0.039 -0.035,-0.082 -0.035,-0.131c0,-0.049 0.012,-0.092 0.035,-0.131c0.023,-0.038 0.054,-0.068 0.093,-0.09c0.039,-0.022 0.084,-0.033 0.133,-0.033c0.048,0 0.09,0.01 0.127,0.031c0.037,0.021 0.066,0.049 0.087,0.086c0.02,0.037 0.031,0.079 0.031,0.126c0,0.009 -0.001,0.018 -0.002,0.027c-0.001,0.01 -0.002,0.021 -0.005,0.034l-0.419,0.001l-0,-0.105l0.354,-0.001l-0.066,0.044c-0.001,-0.028 -0.005,-0.051 -0.013,-0.07c-0.008,-0.018 -0.02,-0.032 -0.035,-0.042c-0.016,-0.009 -0.035,-0.014 -0.058,-0.014c-0.024,-0 -0.045,0.005 -0.062,0.016c-0.018,0.011 -0.032,0.027 -0.041,0.047c-0.01,0.02 -0.015,0.044 -0.015,0.073c0,0.029 0.005,0.053 0.016,0.073c0.01,0.021 0.024,0.036 0.044,0.047c0.019,0.011 0.041,0.017 0.067,0.017c0.024,-0 0.046,-0.004 0.065,-0.013c0.019,-0.008 0.036,-0.02 0.051,-0.037l0.084,0.084c-0.024,0.028 -0.053,0.049 -0.087,0.063c-0.034,0.014 -0.071,0.021 -0.112,0.021Z" style="fill:#1db954;fill-rule:nonzero;"/></g><g transform="matrix(133.333,0,0,133.333,1811.53,562.643)"><path d="M0.054,-0l0,-0.486l0.153,0l0,0.486l-0.153,-0Zm0.153,-0.267l-0.064,-0.05c0.013,-0.057 0.034,-0.101 0.064,-0.132c0.03,-0.031 0.072,-0.047 0.125,-0.047c0.023,0 0.044,0.004 0.062,0.011c0.017,0.007 0.033,0.017 0.046,0.032l-0.091,0.115c-0.007,-0.007 -0.015,-0.013 -0.025,-0.017c-0.01,-0.004 -0.021,-0.006 -0.034,-0.006c-0.025,0 -0.045,0.008 -0.06,0.023c-0.015,0.016 -0.023,0.04 -0.023,0.071Z" style="fill:#1db954;fill-rule:nonzero;"/></g></g></g></svg>